<svg width="153" height="52" viewBox="0 0 153 52" fill="none" xmlns="http://www.w3.org/2000/svg">
<path d="M44.75 45H38.4659V24.6364H45.0284C47.0038 24.6364 48.6941 25.044 50.0994 25.8594C51.5047 26.6681 52.5819 27.8314 53.331 29.3494C54.08 30.8608 54.4545 32.6705 54.4545 34.7784C54.4545 36.8996 54.0767 38.7259 53.321 40.2571C52.5653 41.7817 51.465 42.955 50.0199 43.777C48.5748 44.5923 46.8182 45 44.75 45ZM40.9318 42.8125H44.5909C46.2746 42.8125 47.67 42.4877 48.777 41.8381C49.884 41.1884 50.7093 40.2637 51.2528 39.0639C51.7964 37.8641 52.0682 36.4356 52.0682 34.7784C52.0682 33.1345 51.7997 31.7192 51.2628 30.5327C50.7259 29.3395 49.9238 28.4247 48.8565 27.7884C47.7893 27.1454 46.4602 26.8239 44.8693 26.8239H40.9318V42.8125ZM58.2727 45V29.7273H60.6193V45H58.2727ZM59.4659 27.1818C59.0085 27.1818 58.6141 27.026 58.2827 26.7145C57.9579 26.4029 57.7955 26.0284 57.7955 25.5909C57.7955 25.1534 57.9579 24.7789 58.2827 24.4673C58.6141 24.1558 59.0085 24 59.4659 24C59.9233 24 60.3144 24.1558 60.6392 24.4673C60.9706 24.7789 61.1364 25.1534 61.1364 25.5909C61.1364 26.0284 60.9706 26.4029 60.6392 26.7145C60.3144 27.026 59.9233 27.1818 59.4659 27.1818ZM75.7354 33.1477L73.6275 33.7443C73.4949 33.393 73.2994 33.0516 73.0408 32.7202C72.7889 32.3821 72.4442 32.1037 72.0067 31.8849C71.5692 31.6662 71.0091 31.5568 70.3263 31.5568C69.3917 31.5568 68.6128 31.7723 67.9897 32.2031C67.3732 32.6274 67.065 33.1676 67.065 33.8239C67.065 34.4072 67.2771 34.8679 67.7013 35.206C68.1256 35.544 68.7885 35.8258 69.69 36.0511L71.957 36.608C73.3226 36.9394 74.3401 37.4465 75.0096 38.1293C75.6791 38.8054 76.0138 39.6771 76.0138 40.7443C76.0138 41.6193 75.762 42.4015 75.2582 43.0909C74.761 43.7803 74.065 44.3239 73.1701 44.7216C72.2752 45.1193 71.2345 45.3182 70.0479 45.3182C68.4902 45.3182 67.2009 44.9801 66.18 44.304C65.1592 43.6278 64.5129 42.6402 64.2411 41.3409L66.4684 40.7841C66.6805 41.6061 67.0816 42.2225 67.6715 42.6335C68.2681 43.0445 69.047 43.25 70.0082 43.25C71.1019 43.25 71.9703 43.018 72.6133 42.554C73.2629 42.0833 73.5877 41.5199 73.5877 40.8636C73.5877 40.3333 73.4021 39.8892 73.0309 39.5312C72.6597 39.1667 72.0896 38.8949 71.3207 38.7159L68.7752 38.1193C67.3765 37.7879 66.3491 37.2741 65.6928 36.5781C65.0432 35.8755 64.7184 34.9972 64.7184 33.9432C64.7184 33.0814 64.9603 32.3191 65.4442 31.6562C65.9348 30.9934 66.601 30.473 67.4428 30.0952C68.2913 29.7173 69.2525 29.5284 70.3263 29.5284C71.8377 29.5284 73.0243 29.8598 73.886 30.5227C74.7544 31.1856 75.3709 32.0606 75.7354 33.1477ZM79.5462 50.7273V29.7273H81.8132V32.1534H82.0916C82.264 31.8883 82.5026 31.5502 82.8075 31.1392C83.1191 30.7216 83.5632 30.3504 84.1399 30.0256C84.7232 29.6941 85.5121 29.5284 86.5064 29.5284C87.7924 29.5284 88.9259 29.8499 89.907 30.4929C90.888 31.1359 91.6536 32.0473 92.2038 33.2273C92.754 34.4072 93.0291 35.7992 93.0291 37.4034C93.0291 39.0208 92.754 40.4228 92.2038 41.6094C91.6536 42.7893 90.8913 43.7041 89.9169 44.3537C88.9425 44.9967 87.8189 45.3182 86.5462 45.3182C85.5651 45.3182 84.7796 45.1558 84.1896 44.831C83.5997 44.4995 83.1456 44.125 82.8274 43.7074C82.5092 43.2831 82.264 42.9318 82.0916 42.6534H81.8928V50.7273H79.5462ZM81.853 37.3636C81.853 38.517 82.022 39.5346 82.3601 40.4162C82.6982 41.2912 83.192 41.9773 83.8416 42.4744C84.4912 42.965 85.2867 43.2102 86.228 43.2102C87.209 43.2102 88.0277 42.9517 88.6839 42.4347C89.3468 41.911 89.844 41.2083 90.1754 40.3267C90.5135 39.4384 90.6825 38.4508 90.6825 37.3636C90.6825 36.2898 90.5168 35.322 90.1854 34.4602C89.8606 33.5919 89.3667 32.9058 88.7038 32.402C88.0476 31.8916 87.2223 31.6364 86.228 31.6364C85.2734 31.6364 84.4714 31.8783 83.8217 32.3622C83.1721 32.8395 82.6816 33.509 82.3501 34.3707C82.0187 35.2259 81.853 36.2235 81.853 37.3636ZM103.012 45.3182C101.54 45.3182 100.271 44.9934 99.2038 44.3438C98.1432 43.6875 97.3246 42.7727 96.7479 41.5994C96.1778 40.4195 95.8928 39.0473 95.8928 37.483C95.8928 35.9186 96.1778 34.5398 96.7479 33.3466C97.3246 32.1468 98.1267 31.2121 99.1541 30.5426C100.188 29.8665 101.395 29.5284 102.773 29.5284C103.569 29.5284 104.354 29.661 105.13 29.9261C105.906 30.1913 106.612 30.6222 107.248 31.2188C107.884 31.8087 108.391 32.5909 108.769 33.5653C109.147 34.5398 109.336 35.7396 109.336 37.1648V38.1591H97.5632V36.1307H106.95C106.95 35.2689 106.777 34.5 106.433 33.8239C106.094 33.1477 105.611 32.6141 104.981 32.223C104.358 31.8319 103.622 31.6364 102.773 31.6364C101.839 31.6364 101.03 31.8684 100.347 32.3324C99.6712 32.7898 99.1508 33.3864 98.7862 34.1222C98.4216 34.858 98.2393 35.6468 98.2393 36.4886V37.8409C98.2393 38.9943 98.4382 39.9721 98.8359 40.7741C99.2403 41.5696 99.8004 42.1761 100.516 42.5938C101.232 43.0047 102.064 43.2102 103.012 43.2102C103.629 43.2102 104.185 43.1241 104.683 42.9517C105.186 42.7727 105.621 42.5076 105.985 42.1562C106.35 41.7983 106.631 41.3542 106.83 40.8239L109.097 41.4602C108.859 42.2292 108.458 42.9053 107.894 43.4886C107.331 44.0653 106.635 44.5161 105.806 44.8409C104.978 45.1591 104.046 45.3182 103.012 45.3182ZM112.906 45V29.7273H115.173V32.0341H115.332C115.61 31.2784 116.114 30.6652 116.843 30.1946C117.572 29.724 118.394 29.4886 119.309 29.4886C119.481 29.4886 119.697 29.4919 119.955 29.4986C120.214 29.5052 120.409 29.5152 120.542 29.5284V31.9148C120.462 31.8949 120.28 31.8651 119.995 31.8253C119.717 31.7789 119.422 31.7557 119.11 31.7557C118.368 31.7557 117.705 31.9115 117.121 32.223C116.545 32.5279 116.087 32.9522 115.749 33.4957C115.418 34.0327 115.252 34.6458 115.252 35.3352V45H112.906ZM134.142 33.1477L132.034 33.7443C131.901 33.393 131.706 33.0516 131.447 32.7202C131.195 32.3821 130.85 32.1037 130.413 31.8849C129.975 31.6662 129.415 31.5568 128.733 31.5568C127.798 31.5568 127.019 31.7723 126.396 32.2031C125.779 32.6274 125.471 33.1676 125.471 33.8239C125.471 34.4072 125.683 34.8679 126.108 35.206C126.532 35.544 127.195 35.8258 128.096 36.0511L130.363 36.608C131.729 36.9394 132.746 37.4465 133.416 38.1293C134.085 38.8054 134.42 39.6771 134.42 40.7443C134.42 41.6193 134.168 42.4015 133.664 43.0909C133.167 43.7803 132.471 44.3239 131.576 44.7216C130.681 45.1193 129.641 45.3182 128.454 45.3182C126.896 45.3182 125.607 44.9801 124.586 44.304C123.565 43.6278 122.919 42.6402 122.647 41.3409L124.875 40.7841C125.087 41.6061 125.488 42.2225 126.078 42.6335C126.674 43.0445 127.453 43.25 128.414 43.25C129.508 43.25 130.377 43.018 131.02 42.554C131.669 42.0833 131.994 41.5199 131.994 40.8636C131.994 40.3333 131.808 39.8892 131.437 39.5312C131.066 39.1667 130.496 38.8949 129.727 38.7159L127.181 38.1193C125.783 37.7879 124.755 37.2741 124.099 36.5781C123.449 35.8755 123.125 34.9972 123.125 33.9432C123.125 33.0814 123.367 32.3191 123.85 31.6562C124.341 30.9934 125.007 30.473 125.849 30.0952C126.698 29.7173 127.659 29.5284 128.733 29.5284C130.244 29.5284 131.431 29.8598 132.292 30.5227C133.161 31.1856 133.777 32.0606 134.142 33.1477ZM144.356 45.3182C142.884 45.3182 141.615 44.9934 140.548 44.3438C139.487 43.6875 138.668 42.7727 138.092 41.5994C137.522 40.4195 137.237 39.0473 137.237 37.483C137.237 35.9186 137.522 34.5398 138.092 33.3466C138.668 32.1468 139.47 31.2121 140.498 30.5426C141.532 29.8665 142.738 29.5284 144.117 29.5284C144.913 29.5284 145.698 29.661 146.474 29.9261C147.249 30.1913 147.955 30.6222 148.592 31.2188C149.228 31.8087 149.735 32.5909 150.113 33.5653C150.491 34.5398 150.68 35.7396 150.68 37.1648V38.1591H138.907V36.1307H148.293C148.293 35.2689 148.121 34.5 147.776 33.8239C147.438 33.1477 146.954 32.6141 146.325 32.223C145.701 31.8319 144.966 31.6364 144.117 31.6364C143.183 31.6364 142.374 31.8684 141.691 32.3324C141.015 32.7898 140.495 33.3864 140.13 34.1222C139.765 34.858 139.583 35.6468 139.583 36.4886V37.8409C139.583 38.9943 139.782 39.9721 140.18 40.7741C140.584 41.5696 141.144 42.1761 141.86 42.5938C142.576 43.0047 143.408 43.2102 144.356 43.2102C144.972 43.2102 145.529 43.1241 146.026 42.9517C146.53 42.7727 146.964 42.5076 147.329 42.1562C147.693 41.7983 147.975 41.3542 148.174 40.8239L150.441 41.4602C150.202 42.2292 149.801 42.9053 149.238 43.4886C148.674 44.0653 147.978 44.5161 147.15 44.8409C146.321 45.1591 145.39 45.3182 144.356 45.3182Z" fill="#1E1E1E"/>
<path d="M18 21.33L11.94 19.305L18 16.275L24.06 19.305L18 21.33ZM18 23.64C17.8773 23.642 17.7553 23.6217 17.64 23.58L11.3685 21.489C11.2786 21.4587 11.1814 21.4577 11.0909 21.4859C11.0004 21.5142 10.9211 21.5703 10.8643 21.6464C10.8076 21.7224 10.7764 21.8144 10.775 21.9092C10.7737 22.0041 10.8024 22.0969 10.857 22.1745L16.995 30.975C17.1071 31.138 17.2571 31.2713 17.4322 31.3635C17.6073 31.4556 17.8022 31.5037 18 31.5037C18.1978 31.5037 18.3927 31.4556 18.5678 31.3635C18.7429 31.2713 18.8929 31.138 19.005 30.975L25.143 22.1745C25.1976 22.0969 25.2263 22.0041 25.225 21.9092C25.2236 21.8144 25.1924 21.7224 25.1357 21.6464C25.0789 21.5703 24.9996 21.5142 24.9091 21.4859C24.8186 21.4577 24.7214 21.4587 24.6315 21.489L18.36 23.58C18.2446 23.6217 18.1227 23.642 18 23.64V23.64ZM18.51 14.01L24.75 17.1285C24.836 17.1732 24.9341 17.1889 25.0297 17.1734C25.1253 17.1579 25.2134 17.1119 25.2808 17.0423C25.3482 16.9727 25.3914 16.8832 25.4038 16.7871C25.4163 16.691 25.3974 16.5935 25.35 16.509L19.08 5.12998C18.9719 4.9387 18.815 4.77956 18.6252 4.66883C18.4355 4.5581 18.2197 4.49976 18 4.49976C17.7803 4.49976 17.5645 4.5581 17.3748 4.66883C17.185 4.77956 17.0281 4.9387 16.92 5.12998L10.65 16.509C10.6026 16.5935 10.5837 16.691 10.5962 16.7871C10.6086 16.8832 10.6518 16.9727 10.7192 17.0423C10.7866 17.1119 10.8747 17.1579 10.9703 17.1734C11.0659 17.1889 11.164 17.1732 11.25 17.1285L17.49 14.01C17.6498 13.9359 17.8238 13.8975 18 13.8975C18.1762 13.8975 18.3502 13.9359 18.51 14.01V14.01Z" fill="#3E66E5"/>
</svg>
