<svg width="28" height="28" viewBox="0 0 28 28" fill="none" xmlns="http://www.w3.org/2000/svg">
<path d="M13.9983 0C6.2685 0 0 6.42679 0 14.3548C0 20.6958 4.011 26.0753 9.576 27.9751C10.276 28.1074 10.5315 27.6641 10.5315 27.2835C10.5315 26.9421 10.5192 26.0396 10.5122 24.8421C6.6185 25.7089 5.796 22.9173 5.796 22.9173C5.16075 21.2588 4.242 20.8174 4.242 20.8174C2.96975 19.9273 4.3365 19.9452 4.3365 19.9452C5.74175 20.0471 6.48025 21.425 6.48025 21.425C7.72975 23.6179 9.758 22.9852 10.556 22.6171C10.682 21.6895 11.0442 21.0568 11.445 20.6976C8.337 20.3348 5.068 19.1034 5.068 13.6042C5.068 12.0368 5.614 10.7554 6.51 9.75099C6.36475 9.38818 5.88525 7.92804 6.6465 5.95318C6.6465 5.95318 7.8225 5.56714 10.4965 7.42405C11.613 7.10592 12.81 6.94686 14.0018 6.9415C15.19 6.94865 16.3887 7.10592 17.507 7.42583C20.1792 5.56893 21.3535 5.95496 21.3535 5.95496C22.1165 7.93161 21.637 9.38997 21.4935 9.75277C22.3912 10.7572 22.932 12.0386 22.932 13.606C22.932 19.1195 19.6595 20.333 16.541 20.6887C17.0432 21.1319 17.4912 22.0076 17.4912 23.3462C17.4912 25.2657 17.4737 26.8134 17.4737 27.2835C17.4737 27.6677 17.7257 28.1145 18.4362 27.9733C23.9925 26.0717 28 20.694 28 14.3548C28 6.42679 21.7315 0 13.9983 0Z" fill="#7183BF"/>
</svg>
