<svg width="28" height="28" viewBox="0 0 28 28" fill="none" xmlns="http://www.w3.org/2000/svg">
<path d="M0.494563 13.5002L6.94632 15.9082L9.44355 23.9393C9.60334 24.4536 10.2323 24.6437 10.6498 24.3024L14.2461 21.3706C14.6231 21.0635 15.16 21.0482 15.554 21.3341L22.0405 26.0435C22.4871 26.3681 23.1198 26.1234 23.2318 25.5837L27.9835 2.72721C28.1057 2.13772 27.5265 1.64595 26.9652 1.86304L0.487003 12.0775C-0.166424 12.3295 -0.160731 13.2547 0.494563 13.5002ZM9.0411 14.6264L21.6502 6.86039C21.8769 6.72123 22.11 7.02764 21.9154 7.20815L11.5092 16.8812C11.1434 17.2217 10.9075 17.6773 10.8407 18.1719L10.4862 20.7989C10.4392 21.1496 9.94652 21.1844 9.84974 20.845L8.48642 16.0547C8.33027 15.5083 8.55782 14.9247 9.0411 14.6264Z" fill="#7183BF"/>
</svg>
